{
  "accessors": [
    {
      "bufferView": 2,
      "componentType": 5126,
      "count": 2795,
      "max": [
        1.7552883625030518,
        4.6932878494262695,
        1.9897489547729492
      ],
      "min": [
        -9.078280448913574,
        -16.677228927612305,
        -3.52200984954834
      ],
      "type": "VEC3"
    },
    {
      "bufferView": 2,
      "byteOffset": 33540,
      "componentType": 5126,
      "count": 2795,
      "max": [
        1.0,
        1.0,
        1.0
      ],
      "min": [
        -1.0,
        -1.0,
        -1.0
      ],
      "type": "VEC3"
    },
    {
      "bufferView": 1,
      "componentType": 5126,
      "count": 2795,
      "max": [
        0.9947928190231323,
        0.9928615093231201
      ],
      "min": [
        0.011193742044270039,
        0.0055105313658714294
      ],
      "type": "VEC2"
    },
    {
      "bufferView": 0,
      "componentType": 5125,
      "count": 7359,
      "type": "SCALAR"
    },
    {
      "bufferView": 2,
      "byteOffset": 67080,
      "componentType": 5126,
      "count": 1628,
      "max": [
        9.078278541564941,
        4.6932878494262695,
        -0.4211257994174957
      ],
      "min": [
        1.1965515613555908,
        -9.638912200927734,
        -3.522014617919922
      ],
      "type": "VEC3"
    },
    {
      "bufferView": 2,
      "byteOffset": 86616,
      "componentType": 5126,
      "count": 1628,
      "max": [
        1.0,
        1.0,
        0.9914450645446777
      ],
      "min": [
        -1.0,
        -1.0,
        -0.9983461499214172
      ],
      "type": "VEC3"
    },
    {
      "bufferView": 1,
      "byteOffset": 22360,
      "componentType": 5126,
      "count": 1628,
      "max": [
        0.9947928190231323,
        0.9928615093231201
      ],
      "min": [
        0.011193742044270039,
        0.45399048924446106
      ],
      "type": "VEC2"
    },
    {
      "bufferView": 0,
      "byteOffset": 29436,
      "componentType": 5125,
      "count": 4404,
      "type": "SCALAR"
    },
    {
      "bufferView": 2,
      "byteOffset": 106152,
      "componentType": 5126,
      "count": 1625,
      "max": [
        -1.1965519189834595,
        4.6932878494262695,
        3.522012233734131
      ],
      "min": [
        -9.078278541564941,
        -9.638912200927734,
        0.421125590801239
      ],
      "type": "VEC3"
    },
    {
      "bufferView": 2,
      "byteOffset": 125652,
      "componentType": 5126,
      "count": 1625,
      "max": [
        1.0,
        1.0,
        0.9983461499214172
      ],
      "min": [
        -1.0,
        -1.0,
        -0.9914450645446777
      ],
      "type": "VEC3"
    },
    {
      "bufferView": 1,
      "byteOffset": 35384,
      "componentType": 5126,
      "count": 1625,
      "max": [
        0.9947928190231323,
        0.9928615093231201
      ],
      "min": [
        0.011193742044270039,
        0.45399048924446106
      ],
      "type": "VEC2"
    },
    {
      "bufferView": 0,
      "byteOffset": 47052,
      "componentType": 5125,
      "count": 4407,
      "type": "SCALAR"
    },
    {
      "bufferView": 2,
      "byteOffset": 145152,
      "componentType": 5126,
      "count": 1637,
      "max": [
        9.078278541564941,
        4.6932878494262695,
        3.522012233734131
      ],
      "min": [
        1.1965519189834595,
        -9.638912200927734,
        0.421125590801239
      ],
      "type": "VEC3"
    },
    {
      "bufferView": 2,
      "byteOffset": 164796,
      "componentType": 5126,
      "count": 1637,
      "max": [
        1.0,
        1.0,
        0.9983461499214172
      ],
      "min": [
        -1.0,
        -1.0,
        -0.9914450645446777
      ],
      "type": "VEC3"
    },
    {
      "bufferView": 1,
      "byteOffset": 48384,
      "componentType": 5126,
      "count": 1637,
      "max": [
        0.9947928190231323,
        0.9928615093231201
      ],
      "min": [
        0.011193742044270039,
        0.45399048924446106
      ],
      "type": "VEC2"
    },
    {
      "bufferView": 0,
      "byteOffset": 64680,
      "componentType": 5125,
      "count": 4404,
      "type": "SCALAR"
    }
  ],
  "asset": {
    "extras": {
      "author": "Alexander Günther (https://sketchfab.com/AlexanderGuenther)",
      "license": "CC-BY-4.0 (http://creativecommons.org/licenses/by/4.0/)",
      "source": "https://sketchfab.com/3d-models/stylized-x-wing-645505dd04f9401390d942ec278fb4e0",
      "title": "Stylized X- Wing"
    },
    "generator": "Sketchfab-15.8.0",
    "version": "2.0"
  },
  "bufferViews": [
    {
      "buffer": 0,
      "byteLength": 82296,
      "name": "floatBufferViews",
      "target": 34963
    },
    {
      "buffer": 0,
      "byteLength": 61480,
      "byteOffset": 82296,
      "byteStride": 8,
      "name": "floatBufferViews",
      "target": 34962
    },
    {
      "buffer": 0,
      "byteLength": 184440,
      "byteOffset": 143776,
      "byteStride": 12,
      "name": "floatBufferViews",
      "target": 34962
    }
  ],
  "buffers": [
    {
      "byteLength": 328216,
      "uri": "scene.bin"
    }
  ],
  "images": [
    {
      "uri": "textures/Mat_X-Wing_baseColor.png"
    }
  ],
  "materials": [
    {
      "doubleSided": true,
      "name": "Mat_X-Wing",
      "pbrMetallicRoughness": {
        "baseColorTexture": {
          "index": 0
        },
        "metallicFactor": 0.0,
        "roughnessFactor": 0.8040408205773457
      }
    },
    {
      "doubleSided": true,
      "name": "Mat_X-Wing.001",
      "pbrMetallicRoughness": {
        "baseColorTexture": {
          "index": 0
        },
        "metallicFactor": 0.0,
        "roughnessFactor": 0.8040408205773457
      }
    },
    {
      "doubleSided": true,
      "name": "Mat_X-Wing.002",
      "pbrMetallicRoughness": {
        "baseColorTexture": {
          "index": 0
        },
        "metallicFactor": 0.0,
        "roughnessFactor": 0.8040408205773457
      }
    },
    {
      "doubleSided": true,
      "name": "Mat_X-Wing.003",
      "pbrMetallicRoughness": {
        "baseColorTexture": {
          "index": 0
        },
        "metallicFactor": 0.0,
        "roughnessFactor": 0.8040408205773457
      }
    }
  ],
  "meshes": [
    {
      "name": "Main_Mat_X-Wing_0",
      "primitives": [
        {
          "attributes": {
            "NORMAL": 1,
            "POSITION": 0,
            "TEXCOORD_0": 2
          },
          "indices": 3,
          "material": 0,
          "mode": 4
        }
      ]
    },
    {
      "name": "Main_Mat_X-Wing.001_0",
      "primitives": [
        {
          "attributes": {
            "NORMAL": 5,
            "POSITION": 4,
            "TEXCOORD_0": 6
          },
          "indices": 7,
          "material": 1,
          "mode": 4
        }
      ]
    },
    {
      "name": "Main_Mat_X-Wing.002_0",
      "primitives": [
        {
          "attributes": {
            "NORMAL": 9,
            "POSITION": 8,
            "TEXCOORD_0": 10
          },
          "indices": 11,
          "material": 2,
          "mode": 4
        }
      ]
    },
    {
      "name": "Main_Mat_X-Wing.003_0",
      "primitives": [
        {
          "attributes": {
            "NORMAL": 13,
            "POSITION": 12,
            "TEXCOORD_0": 14
          },
          "indices": 15,
          "material": 3,
          "mode": 4
        }
      ]
    }
  ],
  "nodes": [
    {
      "children": [
        1
      ],
      "matrix": [
        1.0,
        0.0,
        0.0,
        0.0,
        0.0,
        2.220446049250313e-16,
        -1.0,
        0.0,
        0.0,
        1.0,
        2.220446049250313e-16,
        0.0,
        0.0,
        0.0,
        0.0,
        1.0
      ],
      "name": "Sketchfab_model"
    },
    {
      "children": [
        2
      ],
      "matrix": [
        1.0,
        0.0,
        0.0,
        0.0,
        0.0,
        0.0,
        1.0,
        0.0,
        0.0,
        -1.0,
        0.0,
        0.0,
        0.0,
        0.0,
        0.0,
        1.0
      ],
      "name": "d137296a690640c5ae846fa2404edafb.fbx"
    },
    {
      "children": [
        3
      ],
      "name": "RootNode"
    },
    {
      "children": [
        4,
        5,
        6,
        7
      ],
      "matrix": [
        1.0,
        0.0,
        0.0,
        0.0,
        0.0,
        -1.6292067939183141e-07,
        -0.9999999999999868,
        0.0,
        0.0,
        0.9999999999999868,
        -1.6292067939183141e-07,
        0.0,
        0.0,
        0.0,
        -0.9997060298919678,
        1.0
      ],
      "name": "Main"
    },
    {
      "mesh": 0,
      "name": "Main_Mat_X-Wing_0"
    },
    {
      "mesh": 1,
      "name": "Main_Mat_X-Wing.001_0"
    },
    {
      "mesh": 2,
      "name": "Main_Mat_X-Wing.002_0"
    },
    {
      "mesh": 3,
      "name": "Main_Mat_X-Wing.003_0"
    }
  ],
  "samplers": [
    {
      "magFilter": 9729,
      "minFilter": 9987,
      "wrapS": 10497,
      "wrapT": 10497
    }
  ],
  "scene": 0,
  "scenes": [
    {
      "name": "Sketchfab_Scene",
      "nodes": [
        0
      ]
    }
  ],
  "textures": [
    {
      "sampler": 0,
      "source": 0
    }
  ]
}
